<?xml version="1.0" standalone="no"?>
<!DOCTYPE svg PUBLIC "-//W3C//DTD SVG 20010904//EN"
 "http://www.w3.org/TR/2001/REC-SVG-20010904/DTD/svg10.dtd">
<svg version="1.0" xmlns="http://www.w3.org/2000/svg"
 width="1280.000000pt" height="1280.000000pt" viewBox="0 0 1280.000000 1280.000000"
 preserveAspectRatio="xMidYMid meet">
<metadata>
Created by potrace 1.16, written by Peter Selinger 2001-2019
</metadata>
<g transform="translate(0.000000,1280.000000) scale(0.100000,-0.100000)"
fill="#000000" stroke="none">
<path d="M6501 12059 c-327 -38 -629 -190 -856 -431 -466 -495 -507 -1253 -99
-1809 26 -35 500 -517 1053 -1071 l1006 -1008 -3165 0 c-2094 0 -3195 -4
-3255 -10 -234 -27 -468 -119 -656 -259 -82 -62 -220 -203 -283 -291 -113
-157 -198 -360 -231 -554 -19 -114 -19 -338 0 -452 62 -363 275 -690 580 -889
148 -97 286 -156 470 -198 l90 -22 3225 -2 3224 -3 -1005 -1008 c-553 -554
-1027 -1036 -1053 -1071 -141 -191 -232 -411 -266 -641 -16 -111 -14 -334 6
-447 27 -166 106 -373 192 -507 211 -329 524 -544 916 -628 146 -31 407 -31
556 1 181 39 348 109 514 218 98 64 5286 5246 5317 5311 18 37 21 57 17 127
-4 77 -7 89 -41 137 -45 66 -5127 5145 -5218 5216 -293 228 -670 334 -1038
291z"/>
</g>
</svg>
