<svg height='100px' width='100px'  fill="#ffffff" xmlns="http://www.w3.org/2000/svg" xmlns:xlink="http://www.w3.org/1999/xlink" xml:space="preserve" version="1.1" style="shape-rendering:geometricPrecision;text-rendering:geometricPrecision;image-rendering:optimizeQuality;" viewBox="0 0 377 377" x="0px" y="0px" fill-rule="evenodd" clip-rule="evenodd"><defs><style type="text/css">
   
    .fil1 {fill:#ffffff}
    .fil0 {fill:#ffffff;fill-rule:nonzero}
   
  </style></defs><g><path class="fil0" d="M189 0c104,0 188,84 188,188 0,105 -84,189 -188,189 -105,0 -189,-84 -189,-189 0,-104 84,-188 189,-188zm0 29c-89,0 -160,71 -160,159 0,89 71,160 160,160 88,0 159,-71 159,-160 0,-88 -71,-159 -159,-159z"></path><path class="fil1" d="M139 119l50 49 49 -49c13,-13 33,7 20,20l-49 50 49 49c13,13 -7,33 -20,20l-49 -49 -50 49c-13,13 -33,-7 -20,-20l49 -49 -49 -50c-13,-13 7,-33 20,-20z"></path></g></svg>