<svg height='100px' width='100px'  fill="#ffffff" xmlns="http://www.w3.org/2000/svg" data-name="Layer 1" viewBox="0 0 100 100" x="0px" y="0px"><title>Artboard 81</title><path d="M50,65A15,15,0,1,0,35,50,15,15,0,0,0,50,65Zm0-24a9,9,0,1,1-9,9A9,9,0,0,1,50,41Z"></path><circle cx="26" cy="36" r="3" transform="translate(-18.18 40.52) rotate(-60)"></circle><circle cx="36" cy="26" r="3" transform="translate(-8.18 21.48) rotate(-30)"></circle><path d="M50,19H47v6h3A25,25,0,1,1,25,50V47H19v3A31,31,0,1,0,50,19Z"></path></svg>