<?xml version="1.0" encoding="utf-8"?>
<!-- Generator: Adobe Illustrator 25.2.3, SVG Export Plug-In . SVG Version: 6.00 Build 0)  -->
<svg version="1.1" id="Layer_1" xmlns="http://www.w3.org/2000/svg" xmlns:xlink="http://www.w3.org/1999/xlink" x="0px" y="0px"
	 viewBox="0 0 24 24" style="enable-background:new 0 0 24 24;" xml:space="preserve">
<style type="text/css">
	.st0{fill:#0F15C7;}
</style>
<path class="st0" d="M18.9,7c0.8-0.5,1.3-1.2,1.6-2c-0.8,0.4-1.6,0.7-2.4,0.9c-0.7-0.8-1.6-1.1-2.7-1.1c-1,0-1.9,0.4-2.6,1.1
	c-0.7,0.7-1.1,1.6-1.1,2.6c0,0.3,0,0.6,0.1,0.8C8.8,9.1,6.3,7.8,4.3,5.4C3.9,6,3.7,6.6,3.7,7.2c0,1.3,0.5,2.3,1.6,3.1
	c-0.6-0.1-1.2-0.2-1.6-0.5c0,0.9,0.3,1.7,0.8,2.4c0.5,0.7,1.3,1.1,2.1,1.3c-0.3,0.1-0.6,0.1-1,0.1c-0.3,0-0.5,0-0.7-0.1
	c0.2,0.8,0.7,1.4,1.3,1.8c0.6,0.5,1.3,0.7,2.2,0.7c-1.3,1-2.9,1.6-4.6,1.6c-0.4,0-0.7,0-0.9,0c1.7,1.1,3.6,1.6,5.7,1.6
	c2.1,0,4-0.5,5.7-1.6c1.6-1.1,2.9-2.4,3.6-4c0.8-1.6,1.2-3.2,1.2-4.9V8.3c0.8-0.6,1.4-1.2,1.8-1.9C20.3,6.7,19.6,6.9,18.9,7z"/>
<image style="overflow:visible;" width="685" height="475" xlink:href="32E1790.jpg"  transform="matrix(0.24 0 0 0.24 -7509 -7808)">
</image>
</svg>
